<svg xmlns="http://www.w3.org/2000/svg" enable-background="new 0 0 32 32" viewBox="0 0 32 32" id="chats">
  <path d="M26.362793,7.4946289h-1.2470703V6.2270508c0-1.9941406-1.6318359-3.6166992-3.637207-3.6166992H5.6396484
	C3.6328125,2.6103516,2,4.2338867,2,6.2290039v10.4643555c0,1.8720703,1.4374945,3.4165039,3.2729492,3.5986328v3.2133789
	c0,0.3828125,0.2182617,0.7319336,0.5625,0.8994141c0.1386719,0.0673828,0.2885742,0.1005859,0.4375,0.1005859
	c0.2197266,0,0.4375-0.0722656,0.6171875-0.2128906l0.7240601-0.5678711
	c0.5952148,0.7946777,1.4990234,1.3480835,2.5430298,1.4516602v3.2133789c0,0.3828125,0.2182617,0.7319336,0.5625,0.8994141
	c0.1386719,0.0673828,0.2885742,0.1005859,0.4375,0.1005859c0.2197266,0,0.4375-0.0722656,0.6171875-0.2128906l5.0776367-3.9824219
	h9.5083008C28.3671875,25.1943359,30,23.5708008,30,21.5756836V11.1113281C30,9.1171875,28.3681641,7.4946289,26.362793,7.4946289z
	 M28,21.5756836c0,0.8925781-0.7353516,1.6186523-1.6396484,1.6186523h-9.8535156
	c-0.2236328,0-0.440918,0.0751953-0.6171875,0.2128906l-3.7324219,2.9272461v-2.1401367c0-0.5522461-0.4477539-1-1-1h-0.6357422
	c-0.5563354,0-1.0471802-0.2766113-1.3431396-0.6965332l2.7894287-2.1877441h9.5083008
	c2.0068359,0,3.6396484-1.6235352,3.6396484-3.6186523V9.4946289h1.2470703C27.265625,9.4946289,28,10.2197266,28,11.1113281
	V21.5756836z M6.2729492,18.3100586H5.637207C4.734375,18.3100586,4,17.5849609,4,16.6933594V6.2290039
	c0-0.8925781,0.7353516-1.6186523,1.6396484-1.6186523h15.8388672c0.902832,0,1.637207,0.7250977,1.637207,1.6166992v10.4643555
	c0,0.8925781-0.7353516,1.6186523-1.6396484,1.6186523h-9.8535156c-0.2236328,0-0.440918,0.0751953-0.6171875,0.2128906
	l-3.7324219,2.9272461v-2.1401367C7.2729492,18.7578125,6.8251953,18.3100586,6.2729492,18.3100586z"></path>
  <path d="M13.5576172 12.7807617H9.1621094c-.5522461 0-1 .4477539-1 1s.4477539 1 1 1h4.3955078c.5522461 0 1-.4477539 1-1S14.1098633 12.7807617 13.5576172 12.7807617zM17.9536133 8.1625977H9.1621094c-.5522461 0-1 .4477539-1 1s.4477539 1 1 1h8.7915039c.5522461 0 1-.4477539 1-1S18.5058594 8.1625977 17.9536133 8.1625977z"></path>
</svg>
