<svg width="42" height="43" viewBox="0 0 42 43" fill="none" xmlns="http://www.w3.org/2000/svg">
<path d="M11.9 20.9645C11.8983 21.4963 12.0118 22.0215 12.2318 22.4995C12.4518 22.9776 12.7725 23.3959 13.1691 23.7221C12.9482 24.2025 12.8334 24.7298 12.8331 25.264C12.8113 26.1378 13.116 26.9854 13.6809 27.6226C14.2458 28.2598 15.0253 28.6353 15.8501 28.6674C16.055 29.2882 16.4351 29.8274 16.9389 30.2119C17.4427 30.5964 18.046 30.8077 18.6669 30.8172C19.1207 30.8117 19.5673 30.6955 19.9719 30.4777C20.3765 30.2599 20.7283 29.9464 21 29.5614C21.2717 29.9464 21.6235 30.2599 22.0281 30.4777C22.4327 30.6955 22.8793 30.8117 23.3331 30.8172C23.954 30.8077 24.5572 30.5964 25.0611 30.2119C25.5649 29.8274 25.945 29.2882 26.1499 28.6674C26.9747 28.6353 27.7542 28.2598 28.3191 27.6226C28.884 26.9854 29.1887 26.1378 29.1669 25.264C29.1665 24.7299 29.0519 24.2027 28.8316 23.7221C29.228 23.3957 29.5485 22.9774 29.7684 22.4994C29.9882 22.0213 30.1017 21.4962 30.1 20.9645C30.1085 20.3061 29.9365 19.6592 29.6049 19.1023C29.2733 18.5453 28.7963 18.1022 28.2317 17.8265C28.2317 17.7983 28.2317 17.7687 28.2317 17.7398C28.2415 17.0519 28.0539 16.377 27.6936 15.8045C27.3334 15.232 26.8176 14.7888 26.2143 14.5336C26.036 13.8662 25.6596 13.2774 25.1406 12.8543C24.6217 12.4311 23.9879 12.1963 23.3331 12.1844C22.8791 12.1902 22.4324 12.3067 22.0278 12.5249C21.6232 12.743 21.2715 13.057 21 13.4424C20.7283 13.0574 20.3765 12.7439 19.9719 12.5261C19.5673 12.3083 19.1207 12.1921 18.6669 12.1866C18.0124 12.1983 17.3788 12.4329 16.8599 12.8556C16.341 13.2783 15.9643 13.8666 15.7857 14.5336C15.1825 14.7885 14.6666 15.2312 14.3061 15.8033C13.9457 16.3754 13.7576 17.0499 13.7669 17.7375C13.7669 17.7664 13.7669 17.7961 13.7669 17.8243C13.2022 18.1003 12.7253 18.5439 12.3939 19.1013C12.0625 19.6587 11.891 20.3059 11.9 20.9645ZM23.3331 13.6196C23.6913 13.6364 24.0348 13.7755 24.3123 14.0159C24.5898 14.2564 24.7865 14.5854 24.8731 14.9539C24.7244 15.0204 24.564 15.0522 24.4027 15.0473C24.2557 15.04 24.1119 15 23.9804 14.9301C23.849 14.8601 23.7329 14.7616 23.6397 14.6411L22.5645 15.561C22.7853 15.8362 23.0577 16.0599 23.3643 16.2179C23.671 16.3758 24.0052 16.4647 24.346 16.4788C24.3796 16.4788 24.4125 16.4788 24.4461 16.4788C24.975 16.4756 25.4904 16.3013 25.9231 15.9791C26.2075 16.1609 26.4414 16.4191 26.6012 16.7275C26.7611 17.036 26.841 17.3836 26.8331 17.7353C26.832 17.8848 26.8168 18.0338 26.7876 18.1801C26.7859 18.207 26.7859 18.234 26.7876 18.2609C26.5197 18.5047 26.1769 18.6366 25.8237 18.6315C25.5215 18.5785 25.2351 18.4519 24.9871 18.2616C24.739 18.0713 24.5361 17.8226 24.3943 17.5352L23.2043 18.2928C23.4625 18.7785 23.8262 19.1921 24.2652 19.4995C24.7043 19.807 25.2061 19.9994 25.7292 20.0608C25.7866 20.0652 25.8433 20.0667 25.9 20.0667C26.6188 20.0492 27.306 19.7506 27.8292 19.2283C28.1031 19.4139 28.3272 19.6712 28.4797 19.9754C28.6323 20.2795 28.7082 20.6202 28.7 20.9645C28.7032 21.2605 28.646 21.5538 28.5325 21.8244C28.4189 22.0949 28.2516 22.3364 28.042 22.5323C27.7703 22.2148 27.4401 21.9596 27.0717 21.7824C26.7033 21.6052 26.3045 21.5097 25.9 21.5019C25.3451 21.528 24.8059 21.7047 24.3339 22.0149C23.862 22.3252 23.4733 22.7586 23.205 23.2736L24.395 24.029C25.2189 22.6709 26.4453 22.6331 27.3014 23.8874C27.3091 23.8993 27.3098 23.9141 27.3182 23.9252C27.6092 24.3033 27.7677 24.7763 27.7669 25.264C27.7925 25.7455 27.6414 26.2187 27.3451 26.5849C27.0489 26.951 26.6304 27.1816 26.1772 27.2285C25.7213 26.7767 25.1216 26.5229 24.4972 26.5176C24.1261 26.52 23.76 26.6087 23.4249 26.7774C23.0897 26.9461 22.7936 27.1907 22.5575 27.4939L23.6369 28.4079C23.7798 28.2177 23.9758 28.0802 24.1969 28.0149C24.4181 27.9497 24.653 27.9601 24.8682 28.0447C24.7827 28.4142 24.5864 28.7444 24.3088 28.9858C24.0311 29.2271 23.6871 29.3667 23.3282 29.3835C22.8667 29.3477 22.437 29.1209 22.1323 28.7521C21.8276 28.3833 21.6723 27.9023 21.7 27.4131V15.5907C21.6723 15.1006 21.8283 14.6187 22.134 14.2497C22.4398 13.8806 22.8707 13.6542 23.3331 13.6196ZM14.1694 19.2335C14.6929 19.7561 15.3807 20.0548 16.1 20.0719C16.1567 20.0719 16.2134 20.0719 16.2708 20.066C16.7939 20.0045 17.2957 19.8122 17.7348 19.5047C18.1738 19.1973 18.5375 18.7837 18.7957 18.298L17.6057 17.5403C17.4639 17.8278 17.261 18.0765 17.0129 18.2668C16.7649 18.4571 16.4785 18.5837 16.1763 18.6367C15.8231 18.6415 15.4804 18.5098 15.2124 18.2661C15.2141 18.2392 15.2141 18.2122 15.2124 18.1853C15.1832 18.039 15.168 17.89 15.1669 17.7405C15.159 17.3888 15.2389 17.0411 15.3988 16.7327C15.5586 16.4243 15.7925 16.1661 16.0769 15.9843C16.5095 16.3067 17.0249 16.4811 17.5539 16.484H17.654C17.9947 16.4699 18.329 16.381 18.6357 16.2231C18.9423 16.0651 19.2147 15.8414 19.4355 15.5662L18.3603 14.6463C18.2673 14.767 18.1512 14.8656 18.0197 14.9356C17.8883 15.0056 17.7443 15.0455 17.5973 15.0525C17.436 15.0569 17.2757 15.0251 17.1269 14.9591C17.2135 14.5906 17.4102 14.2616 17.6877 14.0211C17.9652 13.7807 18.3087 13.6416 18.6669 13.6247C19.1284 13.6594 19.5586 13.8851 19.8642 14.253C20.1698 14.6209 20.3264 15.1015 20.3 15.5907V27.4131C20.3277 27.9031 20.1717 28.3849 19.8659 28.7538C19.5602 29.1228 19.1293 29.349 18.6669 29.3835C18.308 29.3667 17.964 29.2271 17.6863 28.9858C17.4087 28.7444 17.2124 28.4142 17.1269 28.0447C17.3421 27.9601 17.577 27.9497 17.7982 28.0149C18.0193 28.0802 18.2153 28.2177 18.3582 28.4079L19.4376 27.4939C19.2017 27.191 18.906 26.9465 18.5712 26.7778C18.2364 26.6092 17.8707 26.5203 17.5 26.5176C16.8756 26.5229 16.2759 26.7767 15.82 27.2285C15.3668 27.1816 14.9483 26.951 14.6521 26.5849C14.3558 26.2187 14.2047 25.7455 14.2303 25.264C14.2295 24.7763 14.388 24.3033 14.679 23.9252C14.6874 23.9141 14.6881 23.8993 14.6958 23.8874C15.5519 22.6331 16.7783 22.6709 17.6022 24.029L18.7922 23.2736C18.5241 22.759 18.1358 22.3258 17.6645 22.0156C17.1931 21.7054 16.6544 21.5285 16.1 21.5019C15.6955 21.5098 15.2967 21.6053 14.9284 21.7825C14.56 21.9597 14.2298 22.2149 13.958 22.5323C13.7484 22.3364 13.5811 22.0949 13.4675 21.8244C13.354 21.5538 13.2968 21.2605 13.3 20.9645C13.2925 20.6212 13.3686 20.2817 13.5209 19.9785C13.6731 19.6754 13.8965 19.4188 14.1694 19.2335ZM41.3 0.777098H35.7C35.6096 0.775429 35.5197 0.792654 35.4356 0.827787C35.3515 0.86292 35.2747 0.915272 35.2097 0.98185C35.1447 1.04843 35.0927 1.12792 35.0567 1.21579C35.0207 1.30366 35.0015 1.39818 35 1.49394V1.53916L22.155 0.118814C19.5693 -0.17839 16.9535 0.0833895 14.4662 0.888294L1.8452 5.07373C0.707 5.45106 0 6.27095 0 7.21538C0.00963226 7.53312 0.089893 7.84399 0.234265 8.12272C0.378636 8.40146 0.583048 8.6402 0.8309 8.81957C1.32209 9.16865 1.87738 9.40391 2.46038 9.50994C3.04339 9.61597 3.64098 9.59039 4.214 9.43486L17.6498 6.00852C18.7427 5.73575 19.8794 5.72461 20.9769 5.9759H20.16C18.6669 5.9759 17.5 6.86548 17.5 7.99375C17.5 9.01676 18.4646 9.8574 19.7939 9.99529L26.1261 10.641C26.5279 10.6825 26.9297 10.703 27.3315 10.7025C27.9728 10.703 28.6131 10.6505 29.2467 10.5453L33.5685 9.82849H35V10.7529C35.0015 10.8487 35.0207 10.9432 35.0567 11.0311C35.0927 11.1189 35.1447 11.1984 35.2097 11.265C35.2747 11.3316 35.3515 11.3839 35.4356 11.4191C35.5197 11.4542 35.6096 11.4714 35.7 11.4698H41.3C41.3904 11.4714 41.4803 11.4542 41.5644 11.4191C41.6485 11.3839 41.7253 11.3316 41.7903 11.265C41.8553 11.1984 41.9073 11.1189 41.9433 11.0311C41.9793 10.9432 41.9985 10.8487 42 10.7529V1.49394C41.9985 1.39818 41.9793 1.30366 41.9433 1.21579C41.9073 1.12792 41.8553 1.04843 41.7903 0.98185C41.7253 0.915272 41.6485 0.86292 41.5644 0.827787C41.4803 0.792654 41.3904 0.775429 41.3 0.777098ZM33.5125 8.39183C33.475 8.3917 33.4375 8.39492 33.4005 8.40147L29.0227 9.12647C28.1106 9.27762 27.1842 9.30626 26.2654 9.21172L19.9339 8.5653C19.2549 8.49636 18.9 8.15832 18.9 7.99153C18.9 7.78544 19.3795 7.40663 20.16 7.40663H25.4891C25.6532 7.40899 25.8127 7.34954 25.9393 7.23888C26.0658 7.12822 26.1511 6.97355 26.18 6.80247C26.2047 6.63175 26.1703 6.45733 26.0831 6.3114C25.9958 6.16547 25.8617 6.05789 25.7054 6.00852L21.9618 4.76609C20.4505 4.28476 18.8462 4.23362 17.3103 4.61782L3.8745 8.04342C3.50737 8.14589 3.12429 8.16745 2.74898 8.10675C2.37366 8.04606 2.01411 7.9044 1.6926 7.69056C1.61385 7.63899 1.54681 7.56967 1.49624 7.48754C1.44566 7.40541 1.4128 7.31248 1.4 7.21538C1.4 6.92849 1.7605 6.6075 2.2757 6.437L14.8981 2.25082C17.199 1.51628 19.6153 1.27584 22.0052 1.54361L35 2.98027V8.39183H33.5125ZM40.6 10.0368H36.4V2.21079H40.6V10.0368ZM41.1691 34.1842C40.678 33.8349 40.1228 33.5994 39.5397 33.4934C38.9566 33.3873 38.359 33.4131 37.786 33.5689L24.3502 36.9953C23.2572 37.2673 22.1207 37.2784 21.0231 37.0279H21.84C23.3331 37.0279 24.5 36.1383 24.5 35.0101C24.5 33.987 23.5354 33.1464 22.2061 33.0085L15.8739 32.3628C14.834 32.2554 13.7855 32.2875 12.7533 32.4585L8.4315 33.1746H7V32.2509C6.99854 32.1551 6.97927 32.0606 6.94329 31.9727C6.90731 31.8849 6.85533 31.8054 6.79032 31.7388C6.72531 31.6722 6.64854 31.6199 6.56441 31.5847C6.48027 31.5496 6.39042 31.5324 6.3 31.534H0.7C0.609576 31.5324 0.519728 31.5496 0.435595 31.5847C0.351462 31.6199 0.274693 31.6722 0.209681 31.7388C0.144668 31.8054 0.0926854 31.8849 0.0567066 31.9727C0.0207278 32.0606 0.0014583 32.1551 0 32.2509V41.5099C0.0014583 41.6056 0.0207278 41.7001 0.0567066 41.788C0.0926854 41.8759 0.144668 41.9554 0.209681 42.022C0.274693 42.0885 0.351462 42.1409 0.435595 42.176C0.519728 42.2111 0.609576 42.2284 0.7 42.2267H6.3C6.39042 42.2284 6.48027 42.2111 6.56441 42.176C6.64854 42.1409 6.72531 42.0885 6.79032 42.022C6.85533 41.9554 6.90731 41.8759 6.94329 41.788C6.97927 41.7001 6.99854 41.6056 7 41.5099V41.4646L19.845 42.885C20.5361 42.9616 21.2305 43 21.9254 42.9999C23.8263 43.0066 25.7172 42.7084 27.5338 42.1155L40.1548 37.9301C41.293 37.5527 42 36.7329 42 35.7884C41.9904 35.4707 41.9101 35.1598 41.7657 34.8811C41.6214 34.6023 41.417 34.3636 41.1691 34.1842ZM5.6 40.793H1.4V32.9663H5.6V40.793ZM39.7243 36.5675L27.1019 40.753C24.801 41.4875 22.3847 41.7279 19.9948 41.4602L7 40.0235V34.612H8.4875C8.52502 34.6121 8.56249 34.6089 8.5995 34.6023L12.9773 33.8766C13.8894 33.7261 14.8158 33.6977 15.7346 33.7921L22.0661 34.4385C22.7451 34.5074 23.1 34.8492 23.1 35.0123C23.1 35.2184 22.6205 35.5972 21.84 35.5972H16.5081C16.344 35.5948 16.1845 35.6543 16.0579 35.7649C15.9314 35.8756 15.8461 36.0302 15.8172 36.2013C15.7925 36.3721 15.8269 36.5465 15.9141 36.6924C16.0014 36.8383 16.1355 36.9459 16.2918 36.9953L20.0382 38.2377C21.5495 38.719 23.1538 38.7702 24.6897 38.386L38.1255 34.9582C38.4926 34.8555 38.8757 34.8339 39.2511 34.8946C39.6264 34.9553 39.986 35.097 40.3074 35.311C40.3861 35.3626 40.4532 35.4319 40.5038 35.514C40.5543 35.5962 40.5872 35.6891 40.6 35.7862C40.6 36.0753 40.2395 36.3963 39.7243 36.5668V36.5675ZM33.3403 18.5848L35.56 19.4944L36.4483 21.768C36.5036 21.9019 36.5946 22.0159 36.7101 22.0959C36.8256 22.1758 36.9606 22.2185 37.0986 22.2185C37.2366 22.2185 37.3716 22.1758 37.4871 22.0959C37.6026 22.0159 37.6936 21.9019 37.7489 21.768L38.64 19.4944L40.8611 18.5848C40.9909 18.5356 41.1032 18.4451 41.1826 18.3256C41.262 18.2062 41.3046 18.0637 41.3046 17.9177C41.3046 17.7716 41.262 17.6291 41.1826 17.5097C41.1032 17.3903 40.9909 17.2997 40.8611 17.2505L38.64 16.3439L37.7517 14.0703C37.6964 13.9364 37.6054 13.8224 37.4899 13.7424C37.3744 13.6625 37.2394 13.6198 37.1014 13.6198C36.9634 13.6198 36.8284 13.6625 36.7129 13.7424C36.5974 13.8224 36.5064 13.9364 36.4511 14.0703L35.56 16.3439L33.3389 17.2535C33.2091 17.3027 33.0968 17.3932 33.0174 17.5127C32.938 17.6321 32.8954 17.7746 32.8954 17.9206C32.8954 18.0667 32.938 18.2092 33.0174 18.3286C33.0968 18.448 33.2091 18.5386 33.3389 18.5878L33.3403 18.5848ZM37.1 17.2579L37.5613 17.4469L37.7461 17.9191L37.5613 18.3914L37.1 18.5804L36.6387 18.3914L36.4539 17.9191L36.6387 17.4469L37.1 17.2579ZM4.9 20.7851C4.76168 20.7837 4.6261 20.8258 4.51036 20.9061C4.39462 20.9863 4.30392 21.101 4.2497 21.2358L3.36 23.5094L1.1403 24.419C1.01046 24.4682 0.898169 24.5587 0.818777 24.6782C0.739385 24.7976 0.696774 24.9401 0.696774 25.0861C0.696774 25.2322 0.739385 25.3747 0.818777 25.4941C0.898169 25.6135 1.01046 25.7041 1.1403 25.7533L3.36 26.6592L4.2483 28.9335C4.30361 29.0674 4.39458 29.1814 4.51008 29.2614C4.62558 29.3414 4.76059 29.384 4.8986 29.384C5.03661 29.384 5.17162 29.3414 5.28712 29.2614C5.40262 29.1814 5.49359 29.0674 5.5489 28.9335L6.44 26.6592L8.6611 25.7503C8.79094 25.7011 8.90323 25.6106 8.98262 25.4911C9.06202 25.3717 9.10463 25.2292 9.10463 25.0832C9.10463 24.9371 9.06202 24.7946 8.98262 24.6752C8.90323 24.5558 8.79094 24.4652 8.6611 24.416L6.44 23.5094L5.5503 21.2358C5.49608 21.101 5.40538 20.9863 5.28964 20.9061C5.1739 20.8258 5.03832 20.7837 4.9 20.7851ZM5.5461 25.0847L5.3613 25.5569L4.9 25.7459L4.4387 25.5569L4.2539 25.0847L4.4387 24.6124L4.9 24.4234L5.3613 24.6124L5.5461 25.0847ZM30.5403 28.0017C30.4105 28.051 30.2982 28.1415 30.2188 28.2609C30.1394 28.3803 30.0968 28.5228 30.0968 28.6689C30.0968 28.8149 30.1394 28.9574 30.2188 29.0769C30.2982 29.1963 30.4105 29.2868 30.5403 29.3361L32.2616 30.0403L32.9497 31.8024C33.005 31.9363 33.096 32.0502 33.2115 32.1302C33.327 32.2102 33.462 32.2528 33.6 32.2528C33.738 32.2528 33.873 32.2102 33.9885 32.1302C34.104 32.0502 34.195 31.9363 34.2503 31.8024L34.9384 30.0403L36.6597 29.3361C36.7895 29.2868 36.9018 29.1963 36.9812 29.0769C37.0606 28.9574 37.1032 28.8149 37.1032 28.6689C37.1032 28.5228 37.0606 28.3803 36.9812 28.2609C36.9018 28.1415 36.7895 28.051 36.6597 28.0017L34.9384 27.2975L34.2503 25.5354C34.195 25.4015 34.104 25.2875 33.9885 25.2075C33.873 25.1276 33.738 25.0849 33.6 25.0849C33.462 25.0849 33.327 25.1276 33.2115 25.2075C33.096 25.2875 33.005 25.4015 32.9497 25.5354L32.2616 27.2975L30.5403 28.0017ZM33.6 28.293L33.8611 28.3998L33.9654 28.6674L33.8611 28.935L33.6 29.0418L33.3389 28.935L33.2346 28.6674L33.3389 28.3998L33.6 28.293ZM12.8597 13.6707L11.1384 12.9665L10.4503 11.2044C10.395 11.0705 10.304 10.9565 10.1885 10.8765C10.073 10.7965 9.93801 10.7539 9.8 10.7539C9.66199 10.7539 9.52698 10.7965 9.41148 10.8765C9.29598 10.9565 9.20501 11.0705 9.1497 11.2044L8.4616 12.9665L6.7403 13.6707C6.61046 13.72 6.49817 13.8105 6.41878 13.9299C6.33938 14.0493 6.29677 14.1918 6.29677 14.3379C6.29677 14.4839 6.33938 14.6264 6.41878 14.7458C6.49817 14.8653 6.61046 14.9558 6.7403 15.0051L8.4616 15.7093L9.1497 17.4714C9.20501 17.6053 9.29598 17.7192 9.41148 17.7992C9.52698 17.8792 9.66199 17.9218 9.8 17.9218C9.93801 17.9218 10.073 17.8792 10.1885 17.7992C10.304 17.7192 10.395 17.6053 10.4503 17.4714L11.1384 15.7093L12.8597 15.0051C12.9895 14.9558 13.1018 14.8653 13.1812 14.7458C13.2606 14.6264 13.3032 14.4839 13.3032 14.3379C13.3032 14.1918 13.2606 14.0493 13.1812 13.9299C13.1018 13.8105 12.9895 13.72 12.8597 13.6707ZM9.8 14.7108L9.5389 14.604L9.4346 14.3364L9.5389 14.0688L9.8 13.962L10.0611 14.0688L10.1654 14.3364L10.0611 14.604L9.8 14.7108Z" fill="white"/>
</svg>
